<svg width="22" height="23" viewBox="0 0 22 23" fill="none" xmlns="http://www.w3.org/2000/svg">
<path fill-rule="evenodd" clip-rule="evenodd" d="M22 11.7614C22 10.946 21.9286 10.1619 21.7959 9.40916H11.2245V13.8576H17.2653C17.0051 15.2951 16.2143 16.513 15.0255 17.3285V20.2139H18.6531C20.7755 18.2119 22 15.2637 22 11.7614Z" fill="#4285F4"/>
<path fill-rule="evenodd" clip-rule="evenodd" d="M11.2245 23C14.2551 23 16.7959 21.9703 18.6531 20.2139L15.0255 17.3285C14.0204 18.0185 12.7347 18.4261 11.2245 18.4261C8.30103 18.4261 5.82654 16.4032 4.94389 13.685H1.19388V16.6645C3.04082 20.423 6.83674 23 11.2245 23Z" fill="#34A853"/>
<path fill-rule="evenodd" clip-rule="evenodd" d="M4.94389 13.685C4.7194 12.995 4.59184 12.258 4.59184 11.5001C4.59184 10.7421 4.71939 10.0051 4.94388 9.31506V6.33552H1.19388C0.433674 7.88802 0 9.64438 0 11.5001C0 13.3557 0.433679 15.112 1.19388 16.6645L4.94389 13.685Z" fill="#FBBC05"/>
<path fill-rule="evenodd" clip-rule="evenodd" d="M11.2245 4.57387C12.8725 4.57387 14.3521 5.15409 15.5153 6.29364L18.7347 2.99523C16.7908 1.13955 14.25 0 11.2245 0C6.83674 0 3.04082 2.57711 1.19388 6.33552L4.94388 9.31506C5.82653 6.59688 8.30103 4.57387 11.2245 4.57387Z" fill="#EA4335"/>
</svg>
