<svg width="16" height="17" viewBox="0 0 16 17" fill="none" xmlns="http://www.w3.org/2000/svg">
<path d="M8.00004 11.1663C9.4728 11.1663 10.6667 9.97243 10.6667 8.49967C10.6667 7.02692 9.4728 5.83301 8.00004 5.83301C6.52728 5.83301 5.33337 7.02692 5.33337 8.49967C5.33337 9.97243 6.52728 11.1663 8.00004 11.1663Z" stroke="#FFA54C" stroke-width="1.33333" stroke-linecap="round" stroke-linejoin="round"/>
<path d="M10.6667 5.83357V9.1669C10.6667 9.69734 10.8774 10.206 11.2525 10.5811C11.6276 10.9562 12.1363 11.1669 12.6667 11.1669C13.1971 11.1669 13.7059 10.9562 14.0809 10.5811C14.456 10.206 14.6667 9.69734 14.6667 9.1669V8.50024C14.6666 6.99559 14.1575 5.53522 13.2222 4.35659C12.2869 3.17796 10.9804 2.35039 9.51514 2.00844C8.04987 1.66648 6.512 1.83027 5.15161 2.47315C3.79122 3.11603 2.68831 4.20021 2.02222 5.54939C1.35613 6.89856 1.16602 8.4334 1.48283 9.90431C1.79963 11.3752 2.6047 12.6957 3.76713 13.6511C4.92957 14.6064 6.381 15.1405 7.88543 15.1663C9.38985 15.1922 10.8588 14.7084 12.0534 13.7936" stroke="#FFA54C" stroke-width="1.33333" stroke-linecap="round" stroke-linejoin="round"/>
</svg>
