<svg width="16" height="17" viewBox="0 0 16 17" fill="none" xmlns="http://www.w3.org/2000/svg">
<path d="M12.6667 2.5H3.33333C2.59695 2.5 2 3.09695 2 3.83333V13.1667C2 13.903 2.59695 14.5 3.33333 14.5H12.6667C13.403 14.5 14 13.903 14 13.1667V3.83333C14 3.09695 13.403 2.5 12.6667 2.5Z" stroke="#4B83FF" stroke-width="1.33333" stroke-linecap="round" stroke-linejoin="round"/>
<path d="M5.66663 7.16699C6.21891 7.16699 6.66663 6.71928 6.66663 6.16699C6.66663 5.61471 6.21891 5.16699 5.66663 5.16699C5.11434 5.16699 4.66663 5.61471 4.66663 6.16699C4.66663 6.71928 5.11434 7.16699 5.66663 7.16699Z" stroke="#4B83FF" stroke-width="1.33333" stroke-linecap="round" stroke-linejoin="round"/>
<path d="M14 10.5003L10.6667 7.16699L3.33337 14.5003" stroke="#4B83FF" stroke-width="1.33333" stroke-linecap="round" stroke-linejoin="round"/>
</svg>
