<svg width="300" height="274" viewBox="0 0 300 274" fill="none" xmlns="http://www.w3.org/2000/svg">
<mask id="mask0_1_47" style="mask-type:luminance" maskUnits="userSpaceOnUse" x="0" y="0" width="300" height="274">
<path d="M211.831 0.149364L0 140.55L88.0694 273.426L299.9 133.025L211.831 0.149364Z" fill="white"/>
</mask>
<g mask="url(#mask0_1_47)">
<path d="M236.648 124.816C236.567 124.342 236.461 123.886 236.368 123.421C236.275 122.956 236.133 122.092 235.996 121.442C235.857 120.792 235.64 119.726 235.43 118.85C235.222 117.974 235.156 117.608 235.008 117.003C234.785 116.135 234.571 115.341 234.326 114.469C234.156 113.917 234.022 113.362 233.861 112.824C233.585 111.935 233.299 111.09 233.012 110.245C232.856 109.802 232.718 109.328 232.57 108.899C232.172 107.796 231.742 106.734 231.316 105.708C231.227 105.573 231.128 105.424 231.132 105.225C230.631 104.056 230.097 102.925 229.545 101.827C229.339 101.515 229.141 101.217 229.039 100.855C228.648 100.119 228.276 99.4094 227.844 98.7003C227.592 98.3205 227.35 97.9542 227.107 97.588C226.72 97.0051 226.334 96.4221 225.956 95.8523C225.579 95.283 225.453 95.093 225.21 94.7268C224.968 94.3606 224.509 93.669 224.064 93.2029C223.618 92.7374 223.483 92.5338 223.191 92.1812C222.899 91.8281 222.394 91.3036 221.99 90.8692C221.584 90.4357 221.386 90.2546 221.071 89.956C220.756 89.657 220.242 89.1783 219.819 88.834L218.877 88.0333C218.432 87.6846 217.981 87.3588 217.503 86.9926L216.534 86.3268C216.056 86.019 215.56 85.7429 215.074 85.4799C214.586 85.2174 214.442 85.1176 214.113 84.9452C213.783 84.7732 213.017 84.4421 212.452 84.2112C212.182 84.0977 211.916 83.9614 211.631 83.8577C210.786 83.5401 209.922 83.2718 209.046 83.0531L181.262 76.0952C182.116 76.3304 182.957 76.6133 183.779 76.9445C184.064 77.0482 184.33 77.1846 184.614 77.2893C185.165 77.5289 185.729 77.7603 186.283 78.0369C186.838 78.3135 186.905 78.3861 187.234 78.558C187.563 78.7304 188.204 79.1059 188.681 79.4137C189.159 79.7219 189.331 79.8622 189.651 80.0794C189.97 80.2966 190.552 80.731 191.025 81.1202C191.498 81.5093 191.67 81.649 191.98 81.912C192.291 82.174 192.827 82.6586 193.232 83.0341C193.638 83.4091 193.85 83.64 194.151 83.9473C194.452 84.2551 194.947 84.8249 195.348 85.2817C195.748 85.738 195.928 85.9508 196.212 86.2898C196.495 86.6292 196.994 87.2935 197.372 87.8049C197.75 88.3153 197.866 88.5505 198.118 88.9304C198.369 89.3102 198.881 90.0831 199.268 90.6661C199.511 91.0323 199.753 91.3986 200.005 91.7779C200.445 92.4427 200.796 93.2059 201.185 93.9427C201.383 94.2413 201.582 94.5388 201.707 94.9055C202.258 96.0033 202.778 97.1424 203.28 98.3122L203.478 98.7866C203.903 99.8122 204.32 100.883 204.718 101.985L205.165 103.309C205.459 104.168 205.746 105.013 206.009 105.912C206.17 106.449 206.318 106.995 206.473 107.555C206.706 108.377 206.933 109.222 207.156 110.089C207.303 110.694 207.45 111.3 207.593 111.928C207.734 112.556 207.974 113.626 208.157 114.52L208.529 116.499C208.716 117.487 208.888 118.486 209.034 119.502C209.108 119.94 209.184 120.378 209.245 120.825C209.475 122.352 209.664 123.906 209.843 125.503L237.628 132.462C237.463 130.854 237.259 129.31 237.03 127.784C236.968 127.336 236.893 126.898 236.841 126.465L236.648 124.816Z" fill="#6D9AFF"/>
<path d="M102.772 249.346L102.709 247.924C102.635 245.923 102.574 243.913 102.595 241.85C102.547 239.28 102.539 236.682 102.573 234.057L102.658 231.678C102.705 229.95 102.752 228.22 102.835 226.487C102.888 225.417 102.964 224.351 103.027 223.295C103.104 221.878 103.136 220.51 103.295 219.038C103.454 217.566 103.484 216.727 103.579 215.571C103.673 214.415 103.831 213.003 103.94 211.72L104.337 208.159C104.472 206.918 104.626 205.645 104.77 204.417C104.915 203.189 105.104 201.971 105.267 200.77L105.786 197.128C105.966 195.895 106.129 194.695 106.359 193.449C106.589 192.203 106.729 191.057 106.978 189.838C107.226 188.619 107.406 187.387 107.646 186.155L108.331 182.558L109.085 178.916L109.866 175.315L110.71 171.691C110.995 170.468 111.32 169.335 111.582 168.049L112.485 164.484L113.456 160.815L114.417 157.426C114.778 156.113 115.162 154.804 115.546 153.496L116.539 150.242C116.973 148.862 117.398 147.467 117.854 146.091L118.878 142.973L120.434 138.448L121.453 135.646C122.374 133.083 123.296 130.52 124.263 128.083L124.567 127.276C124.764 126.776 124.978 126.301 125.16 125.81C125.821 124.181 126.482 122.553 127.174 120.942L128.163 118.686C128.709 117.388 129.234 116.025 129.858 114.811L131.496 111.383L132.944 108.316L134.637 104.968L136.143 102.018L137.889 98.753L139.45 95.884C140.032 94.815 140.654 93.7781 141.268 92.7271L142.864 89.9716L144.736 86.8961C145.29 86.021 145.826 85.119 146.376 84.2667C146.926 83.4145 147.689 82.2646 148.312 81.2857L149.974 78.7791L151.991 75.9198L153.675 73.5344C154.388 72.5745 155.114 71.6633 155.836 70.7171C156.394 69.9958 156.948 69.2375 157.515 68.5299C158.886 66.8215 160.274 65.1398 161.686 63.5215L162.552 62.5572C163.668 61.2904 164.793 60.0369 165.944 58.8252C167.096 57.6125 168.416 56.2693 169.677 55.0435C170.937 53.8177 171.952 52.8715 173.099 51.858C174.146 50.9297 175.184 50.0468 176.217 49.1862L177.241 48.3709L179.547 46.6863L180.525 46.0382C181.326 45.5071 182.101 44.9938 182.83 44.4127L183.646 43.8722C184.637 43.2152 185.602 42.5753 186.553 41.9454L187.137 41.5581C187.79 41.1258 188.482 40.7836 189.143 40.4239C190.161 39.866 191.171 39.353 192.162 38.8717L193.062 38.4308C194.334 37.8419 195.583 37.3067 196.819 36.8393L197.728 36.5294C198.642 36.1971 199.573 35.8918 200.487 35.618L201.767 35.2774C202.549 35.071 203.327 34.8875 204.114 34.717L205.412 34.4621C206.203 34.3282 207.002 34.2079 207.798 34.11C208.16 34.0653 208.548 34.0027 208.919 33.9721C210.067 33.8749 211.233 33.8043 212.363 33.7974C213.515 33.7952 214.653 33.8603 215.782 33.9708C216.13 33.994 216.474 34.0396 216.816 34.0857C217.629 34.1908 218.428 34.3053 219.21 34.4512C219.991 34.5971 220.538 34.6837 221.196 34.8521L193.412 27.8939C192.943 27.7754 192.482 27.6709 192.008 27.5755L191.425 27.493C190.635 27.3336 189.836 27.2191 189.032 27.1276C188.788 27.1131 188.553 27.0544 188.315 27.0176L187.998 27.0127C186.869 26.9022 185.739 26.8506 184.587 26.8528C183.458 26.8597 182.306 26.9209 181.143 27.0275L180.846 27.0493C180.584 27.0667 180.299 27.1385 180.023 27.1655C179.241 27.2539 178.44 27.3748 177.636 27.5175L177.058 27.5886L176.338 27.7725C175.565 27.9335 174.787 28.1176 173.991 28.3329L173.191 28.5116L172.712 28.6734C171.798 28.9473 170.879 29.2436 169.952 29.5849C169.748 29.7203 169.477 29.7242 169.233 29.8273L169.083 29.9266C167.835 30.4028 166.585 30.938 165.327 31.5181L165.138 31.6441L164.499 32.0675C163.494 32.5576 162.485 33.0706 161.48 33.6197L160.936 33.9798L159.533 34.8121L158.962 35.1906C158.12 35.7489 157.278 36.3072 156.407 36.8837L155.226 37.6668L152.934 39.2834L151.956 39.9321L151.249 40.4005L149.718 41.6301L148.707 42.4365C147.66 43.3061 146.623 44.1886 145.576 45.1172C144.429 46.1309 143.296 47.1942 142.153 48.3028C141.01 49.4117 139.872 50.5562 138.739 51.7367L138.421 52.084C137.269 53.2961 136.144 54.5497 135.029 55.8159L134.135 56.7987C132.724 58.4171 131.349 60.0895 129.979 61.7979L129.802 61.9153L128.249 63.9398C127.541 64.8773 126.815 65.7885 126.112 66.762C125.408 67.7361 124.967 68.3404 124.418 69.1338L122.402 71.9921C121.834 72.8176 121.284 73.6698 120.735 74.5221C120.185 75.3744 119.417 76.4887 118.79 77.4895C118.163 78.4908 117.69 79.2529 117.145 80.1413L115.263 83.2036L113.668 85.9591C113.063 87.0237 112.453 88.0523 111.849 89.1164L110.303 91.9762C109.716 93.0676 109.134 94.1366 108.556 95.2416L107.036 98.2007L105.344 101.547L103.91 104.606C103.373 105.743 102.84 106.857 102.271 108.034L101.894 108.851L100.563 111.918L99.5885 114.165C98.896 115.776 98.2351 117.404 97.5738 119.033C97.378 119.534 97.1637 120.007 96.9816 120.499L96.9129 120.662L96.6621 121.316C95.7017 123.8 94.7647 126.321 93.852 128.878L93.4463 129.947L92.8483 131.67L91.2777 136.205C91.1043 136.769 90.8988 137.315 90.7118 137.888L90.2544 139.323L88.9478 143.488C88.7286 144.16 88.509 144.832 88.3259 145.5L87.9601 146.718L86.8439 150.64L86.1669 152.923L85.8694 154.038L84.9119 157.698L84.2661 160.175L83.9958 161.272C83.7022 162.481 83.373 163.636 83.1377 164.904L82.528 167.436L82.2937 168.528L81.513 172.13C81.329 172.974 81.1317 173.827 80.9705 174.675L80.7455 175.781L80.0593 179.378L79.4408 181.837L79.2557 182.975L78.6645 186.568L78.2447 189.091L78.0913 190.246C77.9018 191.465 77.7392 192.666 77.5721 193.889C77.4382 194.719 77.3135 195.563 77.2566 196.363L77.1304 197.5C76.9721 198.737 76.8231 199.987 76.6877 201.228L76.3989 203.743L76.2957 204.826C76.1647 206.103 76.0424 207.394 75.9382 208.654C75.8725 209.498 75.7833 210.338 75.6674 211.195L75.6007 212.157C75.5009 213.57 75.4234 214.987 75.3372 216.391C75.2846 217.226 75.2092 218.057 75.1702 218.883L75.1541 219.597C75.0708 221.33 75.0153 223.046 74.9686 224.775C74.9569 225.465 74.9092 226.16 74.8619 226.797L74.8566 227.113C74.8317 229.731 74.8346 232.332 74.8648 234.915L74.8634 235.149C74.8931 237.082 74.9359 239.006 75.0056 240.911L75.0596 242.32L75.1259 244.012C75.1945 245.178 75.2759 246.334 75.3577 247.49L75.4298 248.75C75.5817 250.601 75.76 252.434 75.9523 254.259L76.057 255.302L103.842 262.26C103.61 260.11 103.428 257.947 103.264 255.753L103.178 254.502C102.99 252.772 102.856 251.065 102.772 249.346Z" fill="url(#paint0_linear_1_47)"/>
<path d="M103.732 262.273C96.0762 190.564 125.588 97.8101 169.666 55.0889C213.743 12.3684 255.67 35.8539 263.326 107.564L237.656 132.385C232.462 83.714 204.004 67.7746 174.1 96.7689C144.194 125.764 124.163 188.714 129.362 237.362L103.732 262.273Z" fill="url(#paint1_linear_1_47)"/>
</g>
<defs>
<linearGradient id="paint0_linear_1_47" x1="66.2846" y1="58.5174" x2="153.829" y2="150.742" gradientUnits="userSpaceOnUse">
<stop stop-color="#4C83FF"/>
<stop offset="1" stop-color="#4C83FF"/>
</linearGradient>
<linearGradient id="paint1_linear_1_47" x1="106125" y1="-9187.11" x2="99577.1" y2="-18060.4" gradientUnits="userSpaceOnUse">
<stop stop-color="#7AA1FA"/>
<stop offset="0.49" stop-color="#215CE3"/>
<stop offset="0.99" stop-color="#254898"/>
</linearGradient>
</defs>
</svg>
