<svg width="124" height="36" viewBox="0 0 124 36" fill="none" xmlns="http://www.w3.org/2000/svg">
<path d="M39.5 0.5H11.5C9.567 0.5 8 2.067 8 4V32C8 33.933 9.567 35.5 11.5 35.5H39.5C41.433 35.5 43 33.933 43 32V4C43 2.067 41.433 0.5 39.5 0.5Z" fill="#0042DA"/>
<path d="M36.4375 16.1831V14.1937C36.4375 13.7105 36.0457 13.3187 35.5625 13.3187H20.4855C20.0023 13.3187 19.6105 13.7105 19.6105 14.1937V16.1831C19.6105 16.6663 20.0023 17.0581 20.4855 17.0581H35.5625C36.0457 17.0581 36.4375 16.6663 36.4375 16.1831Z" fill="#FF8E20"/>
<path fill-rule="evenodd" clip-rule="evenodd" d="M16.4322 17.058C17.4647 17.058 18.3018 16.221 18.3018 15.1884C18.3018 14.1558 17.4647 13.3187 16.4322 13.3187C15.3996 13.3187 14.5625 14.1558 14.5625 15.1884C14.5625 16.221 15.3996 17.058 16.4322 17.058Z" fill="#FF8E20"/>
<path d="M14.5625 19.8028V21.7921C14.5625 22.2754 14.9543 22.6671 15.4375 22.6671H30.5145C30.9977 22.6671 31.3895 22.2754 31.3895 21.7921V19.8028C31.3895 19.3195 30.9977 18.9278 30.5145 18.9278H15.4375C14.9543 18.9278 14.5625 19.3195 14.5625 19.8028Z" fill="white"/>
<path fill-rule="evenodd" clip-rule="evenodd" d="M34.5669 18.9277C33.5343 18.9277 32.6973 19.7648 32.6973 20.7974C32.6973 21.83 33.5343 22.6671 34.5669 22.6671C35.5995 22.6671 36.4366 21.83 36.4366 20.7974C36.4366 19.7648 35.5995 18.9277 34.5669 18.9277Z" fill="white"/>
<path d="M52.224 24V11.292H55.05V24H52.224ZM54.384 19.014V16.584H60.738V19.014H54.384ZM54.384 13.722V11.292H61.026V13.722H54.384ZM66.5199 24.198C65.6199 24.198 64.8039 24 64.0719 23.604C63.3519 23.196 62.7819 22.644 62.3619 21.948C61.9419 21.252 61.7319 20.472 61.7319 19.608C61.7319 18.744 61.9419 17.97 62.3619 17.286C62.7819 16.602 63.3519 16.062 64.0719 15.666C64.7919 15.258 65.6079 15.054 66.5199 15.054C67.4319 15.054 68.2479 15.252 68.9679 15.648C69.6879 16.044 70.2579 16.59 70.6779 17.286C71.0979 17.97 71.3079 18.744 71.3079 19.608C71.3079 20.472 71.0979 21.252 70.6779 21.948C70.2579 22.644 69.6879 23.196 68.9679 23.604C68.2479 24 67.4319 24.198 66.5199 24.198ZM66.5199 21.696C66.9159 21.696 67.2639 21.612 67.5639 21.444C67.8639 21.264 68.0919 21.018 68.2479 20.706C68.4159 20.382 68.4999 20.016 68.4999 19.608C68.4999 19.2 68.4159 18.846 68.2479 18.546C68.0799 18.234 67.8459 17.994 67.5459 17.826C67.2579 17.646 66.9159 17.556 66.5199 17.556C66.1359 17.556 65.7939 17.646 65.4939 17.826C65.1939 17.994 64.9599 18.234 64.7919 18.546C64.6239 18.858 64.5399 19.218 64.5399 19.626C64.5399 20.022 64.6239 20.382 64.7919 20.706C64.9599 21.018 65.1939 21.264 65.4939 21.444C65.7939 21.612 66.1359 21.696 66.5199 21.696ZM72.679 24V15.252H75.433V24H72.679ZM75.433 19.194L74.281 18.294C74.509 17.274 74.893 16.482 75.433 15.918C75.973 15.354 76.723 15.072 77.683 15.072C78.103 15.072 78.469 15.138 78.781 15.27C79.105 15.39 79.387 15.582 79.627 15.846L77.989 17.916C77.869 17.784 77.719 17.682 77.539 17.61C77.359 17.538 77.155 17.502 76.927 17.502C76.471 17.502 76.105 17.646 75.829 17.934C75.565 18.21 75.433 18.63 75.433 19.194ZM80.3079 24V15.252H83.0619V24H80.3079ZM85.9059 24V18.888C85.9059 18.444 85.7679 18.102 85.4919 17.862C85.2279 17.61 84.8979 17.484 84.5019 17.484C84.2259 17.484 83.9799 17.544 83.7639 17.664C83.5479 17.772 83.3739 17.928 83.2419 18.132C83.1219 18.336 83.0619 18.588 83.0619 18.888L81.9999 18.42C81.9999 17.724 82.1499 17.13 82.4499 16.638C82.7499 16.134 83.1579 15.75 83.6739 15.486C84.1899 15.21 84.7719 15.072 85.4199 15.072C86.0319 15.072 86.5779 15.21 87.0579 15.486C87.5499 15.762 87.9399 16.146 88.2279 16.638C88.5159 17.13 88.6599 17.718 88.6599 18.402V24H85.9059ZM91.5039 24V18.888C91.5039 18.444 91.3659 18.102 91.0899 17.862C90.8259 17.61 90.4959 17.484 90.0999 17.484C89.8239 17.484 89.5779 17.544 89.3619 17.664C89.1459 17.772 88.9719 17.928 88.8399 18.132C88.7199 18.336 88.6599 18.588 88.6599 18.888L87.0759 18.672C87.0999 17.928 87.2739 17.292 87.5979 16.764C87.9339 16.224 88.3719 15.81 88.9119 15.522C89.4639 15.222 90.0819 15.072 90.7659 15.072C91.4379 15.072 92.0319 15.216 92.5479 15.504C93.0759 15.78 93.4899 16.182 93.7899 16.71C94.1019 17.226 94.2579 17.85 94.2579 18.582V24H91.5039ZM98.4348 24V21.804H101.423C101.975 21.804 102.407 21.642 102.719 21.318C103.031 20.994 103.187 20.598 103.187 20.13C103.187 19.806 103.115 19.518 102.971 19.266C102.827 19.014 102.623 18.816 102.359 18.672C102.107 18.528 101.795 18.456 101.423 18.456H98.4348V16.314H101.189C101.657 16.314 102.035 16.2 102.323 15.972C102.611 15.732 102.755 15.372 102.755 14.892C102.755 14.424 102.611 14.076 102.323 13.848C102.035 13.608 101.657 13.488 101.189 13.488H98.4348V11.292H101.729C102.545 11.292 103.235 11.442 103.799 11.742C104.375 12.042 104.813 12.444 105.113 12.948C105.413 13.452 105.563 14.01 105.563 14.622C105.563 15.402 105.311 16.062 104.807 16.602C104.303 17.142 103.559 17.514 102.575 17.718L102.647 16.764C103.715 16.968 104.537 17.382 105.113 18.006C105.701 18.63 105.995 19.398 105.995 20.31C105.995 21.006 105.821 21.636 105.473 22.2C105.137 22.752 104.645 23.19 103.997 23.514C103.361 23.838 102.593 24 101.693 24H98.4348ZM96.2748 24V11.292H99.0648V24H96.2748ZM111.766 24.198C110.866 24.198 110.05 24 109.318 23.604C108.598 23.196 108.028 22.644 107.608 21.948C107.188 21.252 106.978 20.472 106.978 19.608C106.978 18.744 107.188 17.97 107.608 17.286C108.028 16.602 108.598 16.062 109.318 15.666C110.038 15.258 110.854 15.054 111.766 15.054C112.678 15.054 113.494 15.252 114.214 15.648C114.934 16.044 115.504 16.59 115.924 17.286C116.344 17.97 116.554 18.744 116.554 19.608C116.554 20.472 116.344 21.252 115.924 21.948C115.504 22.644 114.934 23.196 114.214 23.604C113.494 24 112.678 24.198 111.766 24.198ZM111.766 21.696C112.162 21.696 112.51 21.612 112.81 21.444C113.11 21.264 113.338 21.018 113.494 20.706C113.662 20.382 113.746 20.016 113.746 19.608C113.746 19.2 113.662 18.846 113.494 18.546C113.326 18.234 113.092 17.994 112.792 17.826C112.504 17.646 112.162 17.556 111.766 17.556C111.382 17.556 111.04 17.646 110.74 17.826C110.44 17.994 110.206 18.234 110.038 18.546C109.87 18.858 109.786 19.218 109.786 19.626C109.786 20.022 109.87 20.382 110.038 20.706C110.206 21.018 110.44 21.264 110.74 21.444C111.04 21.612 111.382 21.696 111.766 21.696ZM118.991 24V11.634H121.745V24H118.991ZM117.011 17.592V15.252H123.725V17.592H117.011Z" fill="white"/>
<a href="https://www.figma.com/design/WVeL1QPpyuWTynqPRb9Ge7/Form-Builder-Cuvette-Task?node-id=1-2">
<rect fill="black" fill-opacity="0" y="-0.539999" width="10.62" height="22.68"/>
</a>
</svg>
